<svg version="1.0" xmlns="http://www.w3.org/2000/svg" width="600.000000pt" height="600.000000pt" viewBox="0 0 600.000000 600.000000" preserveAspectRatio="xMidYMid meet" style="width: 644.157px; height: auto;"> <g transform="translate(0.000000,600.000000) scale(0.050000,-0.050000)" fill="#000000" stroke="none">  <path d="M6990 11165 c-293 -105 -551 -448 -550 -732 1 -152 187 -376 370 -444 55 -21 144 -71 197 -113 122 -96 158 -95 309 6 167 112 225 110 386 -13 l124 -96 56 69 c353 425 225 1057 -261 1285 -168 79 -466 97 -631 38z m233 -137 c-5 -29 -1 -33 18 -15 13 13 36 19 51 13 16 -6 28 0 28 13 0 13 9 18 20 11 11 -7 20 -1 20 12 0 14 5 20 11 14 6 -6 0 -33 -12 -61 -19 -40 -17 -61 10 -107 30 -52 30 -35 1 38 -6 14 3 43 20 65 30 39 30 39 17 -1 -13 -38 -12 -39 26 -5 43 37 77 47 58 17 -33 -53 53 -120 102 -80 21 18 27 16 27 -10 0 -17 14 -32 30 -32 17 0 30 -12 30 -28 0 -15 12 -37 28 -50 15 -13 33 -50 39 -82 10 -48 22 -60 63 -60 27 0 50 -8 50 -18 0 -10 -17 -14 -38 -8 -21 5 -44 0 -51 -12 -9 -14 10 -22 50 -22 60 0 63 4 52 59 -10 49 15 103 35 78 19 -22 29 -137 12 -127 -11 7 -20 8 -20 3 0 -5 -6 -25 -13 -45 -10 -23 -6 -30 10 -20 14 9 23 2 23 -18 0 -18 9 -27 20 -20 11 7 20 3 20 -9 0 -11 -19 -21 -41 -21 -23 0 -36 9 -29 20 7 11 -8 20 -34 20 -37 1 -40 4 -16 20 17 11 21 19 10 19 -11 0 -37 -13 -59 -30 -37 -28 -36 -29 15 -29 35 0 54 -11 54 -30 0 -16 10 -30 21 -30 12 0 16 -9 9 -20 -7 -11 2 -20 20 -20 18 0 27 -9 20 -20 -6 -10 -2 -37 10 -59 17 -32 15 -38 -8 -29 -16 6 -35 26 -42 45 -10 26 -19 18 -41 -34 -37 -86 -37 -101 -1 -52 38 51 62 24 63 -71 1 -63 -5 -75 -35 -69 -22 4 -36 -5 -36 -24 0 -36 -77 -105 -119 -106 -21 -1 -23 5 -7 21 13 13 18 36 12 52 -7 17 1 38 16 48 21 13 17 17 -17 18 -27 0 -45 -12 -45 -30 0 -16 -16 -30 -35 -30 -30 1 -31 4 -5 22 27 19 27 20 0 12 -16 -4 -29 -23 -27 -42 2 -25 -8 -30 -40 -20 -57 17 -86 45 -42 41 19 -2 39 10 45 25 6 19 -1 24 -23 16 -17 -7 -37 -4 -44 7 -21 35 -62 20 -86 -32 -20 -45 -31 -49 -93 -38 -45 9 -70 6 -70 -8 0 -12 15 -16 35 -9 31 12 32 10 6 -22 -15 -19 -43 -31 -62 -26 -25 7 -31 -1 -24 -29 5 -20 0 -37 -13 -37 -12 0 -22 19 -22 41 0 23 -9 36 -20 29 -11 -7 -20 -2 -20 10 0 13 -14 37 -32 54 -19 20 -26 49 -19 74 28 97 31 163 3 82 -17 -53 -37 -78 -58 -74 -17 3 -45 -14 -61 -38 -34 -48 -93 -40 -93 13 0 17 -8 26 -18 20 -43 -26 -90 13 -51 42 33 25 31 27 -28 27 -36 0 -61 7 -55 16 5 9 1 29 -9 45 -15 24 -18 23 -19 -6 0 -19 -8 -35 -18 -35 -10 0 -13 19 -7 43 8 29 4 39 -11 29 -14 -8 -28 8 -35 42 -7 31 -16 70 -21 86 -13 50 23 150 53 150 16 0 41 14 55 30 20 22 23 22 12 2 -10 -20 -6 -23 11 -13 15 10 33 5 43 -11 14 -23 17 -22 18 5 0 18 -19 37 -42 43 -23 6 -36 20 -30 31 7 11 4 26 -7 32 -36 23 48 151 99 151 11 0 21 11 21 25 1 14 10 7 19 -15 16 -38 17 -38 19 5 0 25 11 43 24 40 12 -3 27 8 32 23 7 20 0 25 -22 16 -18 -7 -33 -4 -33 7 0 10 17 19 39 19 21 0 44 9 50 19 17 27 67 4 78 -36 4 -18 9 -7 11 26 2 56 3 57 31 20 18 -24 30 -29 30 -13 1 38 46 80 81 74 17 -3 27 -20 23 -42z m-175 -920 c18 -7 32 -21 32 -31 0 -10 18 -38 40 -62 22 -23 39 -52 38 -64 0 -11 -6 -10 -11 4 -6 14 -19 20 -29 14 -10 -6 -18 -1 -18 11 0 12 -8 18 -17 12 -9 -6 -34 3 -55 20 -33 27 -34 30 -3 20 22 -7 35 0 35 19 0 16 -18 29 -41 29 -23 0 -36 9 -29 20 14 23 17 24 58 8z" class=""></path> <path d="M6903 10808 c-44 -43 -44 -45 -5 -34 30 7 42 1 42 -22 0 -44 25 -40 55 8 21 34 20 40 -6 40 -17 0 -26 8 -20 19 25 39 -21 32 -66 -11z"></path> <path d="M6712 10565 c-28 -27 -10 -85 26 -85 66 0 89 51 34 76 -26 12 -53 16 -60 9z"></path> <path d="M6914 10545 c-5 -8 -14 -51 -21 -95 -6 -44 -7 -69 -1 -55 6 14 17 22 25 17 7 -4 13 27 13 70 0 81 -2 88 -16 63z"></path> <path d="M7480 10336 c0 -89 49 -214 66 -169 6 17 1 35 -12 40 -16 7 -11 22 16 44 33 28 34 32 5 22 -19 -6 -36 -5 -37 3 -1 8 -4 34 -6 59 -9 76 -32 76 -32 1z"></path> <path d="M5606 10766 c-113 -148 -250 -270 -360 -319 -74 -32 -166 -102 -274 -207 -290 -282 -392 -330 -532 -250 -74 43 -78 41 -277 -108 l-183 -137 -85 29 c-115 39 -139 66 -59 66 78 0 85 42 14 88 -62 41 -69 83 -8 51 76 -41 69 4 -12 74 -58 51 -72 73 -53 85 20 13 17 31 -15 84 -23 37 -42 102 -42 143 0 41 -7 75 -16 75 -27 0 -105 -289 -80 -298 12 -4 0 -24 -26 -44 -47 -35 -47 -37 -9 -65 37 -27 36 -29 -25 -61 -84 -44 -85 -92 0 -92 l63 0 -67 -60 c-37 -33 -79 -60 -94 -60 -14 0 -26 -8 -26 -18 0 -22 49 -42 102 -42 81 0 28 -67 -72 -91 -89 -22 -96 -29 -58 -71 25 -27 27 -38 8 -38 -15 0 -21 -6 -14 -13 7 -7 27 -1 44 13 46 38 62 7 20 -39 -38 -43 0 -82 49 -52 12 8 21 4 21 -7 0 -34 -158 -105 -201 -92 -50 16 -50 50 0 50 58 0 69 35 30 95 -20 29 -38 84 -41 122 -4 39 -16 79 -27 90 -12 12 -21 32 -21 46 0 69 -42 134 -68 105 -27 -30 -82 -196 -75 -226 3 -9 -11 -34 -30 -55 -25 -28 -28 -44 -11 -61 17 -17 14 -29 -12 -49 -30 -23 -30 -29 -4 -46 24 -16 17 -24 -35 -42 -89 -31 -86 -79 5 -79 39 0 70 -8 70 -18 0 -24 -120 -113 -176 -131 -56 -18 -48 -59 14 -68 55 -8 45 -51 -15 -59 -24 -4 -53 -25 -65 -47 -12 -22 -52 -53 -90 -69 -45 -19 -68 -42 -68 -68 0 -38 14 -40 355 -40 195 0 1685 -6 3310 -13 3161 -14 3020 -18 2920 78 -19 18 -44 42 -55 54 -100 104 -247 201 -331 219 -61 13 -147 58 -233 119 -76 55 -202 121 -286 151 -86 30 -223 103 -320 170 -93 64 -216 140 -271 168 -56 28 -140 83 -187 122 -104 87 -121 88 -228 15 -242 -166 -271 -166 -479 -1 -54 43 -119 78 -143 78 -105 0 -246 130 -419 386 -28 42 -87 101 -130 130 -44 30 -119 90 -167 134 -48 44 -134 123 -191 175 -129 119 -182 123 -259 21z m177 -196 c26 -86 71 -179 104 -215 103 -117 133 -181 134 -285 2 -141 7 -149 214 -386 65 -73 97 -138 79 -156 -8 -9 -61 32 -258 202 -38 33 -99 103 -134 156 -36 53 -76 92 -89 88 -28 -10 -22 -161 7 -171 29 -9 3 -43 -33 -43 -84 0 -251 -150 -240 -215 11 -65 -247 -232 -318 -205 -49 19 -169 -25 -169 -61 0 -11 -13 -19 -29 -19 -32 0 -60 -69 -40 -101 8 -14 23 -8 41 15 27 34 28 34 15 -2 -10 -27 -6 -35 15 -28 15 6 26 24 22 42 -3 17 4 37 15 44 12 7 16 -1 9 -19 -9 -22 0 -31 30 -31 24 0 42 13 42 30 0 17 17 30 38 30 21 0 42 8 45 19 4 10 45 23 92 28 47 5 81 2 75 -7 -6 -10 7 -16 29 -15 37 3 37 6 7 39 -34 38 -24 43 51 23 36 -10 40 -17 20 -31 -22 -15 -21 -17 3 -11 17 4 40 37 51 72 12 35 28 58 35 50 25 -25 15 24 -11 52 -21 22 -17 24 22 15 34 -8 61 3 96 37 27 27 57 49 66 49 10 0 26 24 35 53 13 39 33 53 80 57 58 5 60 3 30 -32 -24 -28 -36 -31 -48 -13 -11 19 -15 19 -16 1 0 -34 35 -51 51 -25 18 30 110 5 154 -42 42 -45 47 -74 7 -40 -24 19 -27 16 -18 -19 7 -26 22 -38 39 -32 15 6 46 -7 67 -28 22 -22 51 -39 65 -38 20 1 20 3 0 11 -14 6 -20 19 -14 29 6 10 0 18 -15 18 -54 1 -89 38 -56 60 44 29 60 24 46 -13 -10 -25 -5 -31 19 -22 18 7 37 2 42 -11 7 -18 15 -17 29 4 11 15 30 21 42 13 13 -8 22 3 22 28 0 26 13 41 35 41 30 1 31 3 5 20 -25 16 -24 19 7 20 28 0 35 -10 27 -40 -6 -22 -1 -40 9 -40 43 0 6 90 -39 97 -40 5 -43 11 -20 38 22 28 21 31 -9 19 -19 -7 -35 -4 -35 7 0 10 10 19 22 19 12 0 17 15 10 32 -9 24 -4 29 19 20 18 -7 26 -3 18 9 -7 11 -30 15 -51 8 -21 -6 -38 -2 -38 10 0 12 -25 32 -55 44 -34 14 -45 25 -28 32 14 5 37 -1 49 -13 33 -33 52 -27 49 14 -4 50 -55 99 -55 52 0 -23 -12 -30 -40 -22 -25 6 -40 0 -40 -17 0 -15 -8 -31 -17 -37 -10 -6 -13 10 -8 36 5 26 -1 53 -13 61 -12 7 -22 30 -22 51 0 20 -11 41 -25 47 -14 6 -9 11 12 11 20 1 32 13 28 27 -5 14 -26 22 -47 18 -37 -7 -37 -6 0 35 32 35 33 42 7 42 -18 0 -36 -11 -42 -25 -8 -20 -10 -19 -11 1 -1 14 12 30 28 37 48 18 35 51 -15 36 l-45 -13 46 34 c43 31 49 31 82 2 19 -18 41 -26 49 -19 7 8 12 -17 11 -55 0 -37 -6 -57 -11 -43 -12 29 -47 34 -47 6 0 -33 84 -47 104 -18 15 21 17 19 9 -7 -6 -19 -2 -40 8 -47 11 -6 15 -19 9 -28 -5 -9 13 -22 40 -29 27 -7 49 -19 48 -27 -8 -50 3 -74 21 -47 14 23 29 19 81 -25 35 -29 76 -53 92 -53 35 0 38 -39 3 -42 -14 -1 3 -10 37 -20 34 -9 72 -38 84 -63 l22 -45 -4 50 c-2 28 -12 55 -21 62 -9 7 -2 18 16 25 18 7 29 5 23 -3 -14 -24 12 -52 73 -79 50 -22 54 -32 45 -104 -8 -64 -5 -78 19 -69 18 7 27 32 23 65 -4 29 -3 37 2 16 6 -23 20 -32 40 -24 23 9 28 2 20 -30 -9 -34 -6 -37 17 -18 16 13 24 30 19 38 -5 9 15 11 45 5 49 -9 50 -12 14 -26 -30 -12 -24 -16 31 -17 52 -1 62 -6 40 -21 -16 -10 -30 -30 -30 -44 -1 -14 -17 -23 -37 -20 -22 4 -32 -2 -24 -15 16 -26 17 -26 -64 -2 -70 20 -112 -9 -63 -42 22 -14 19 -17 -10 -13 -70 11 -52 -34 33 -82 113 -65 234 -166 235 -197 0 -31 73 -33 91 -3 9 15 1 18 -26 10 -26 -9 -44 -3 -52 17 -15 40 18 58 78 43 28 -7 49 -4 49 8 0 11 -13 20 -30 20 -17 0 -30 18 -30 42 0 35 -5 39 -29 19 -16 -13 -47 -19 -70 -11 -41 13 -47 49 -11 75 11 8 1 15 -22 15 -34 0 -41 9 -33 50 5 28 18 50 27 50 10 0 18 14 18 32 0 17 11 27 25 22 14 -5 23 -20 20 -33 -4 -13 3 -18 15 -11 26 16 52 -50 26 -67 -28 -19 -46 -101 -24 -114 10 -6 18 11 18 38 0 56 26 71 99 55 l51 -10 -56 -11 c-53 -10 -54 -13 -23 -51 27 -33 30 -34 21 -5 -6 19 -1 35 11 35 13 0 16 -20 9 -50 -7 -29 -4 -50 8 -50 11 0 20 9 20 20 0 31 72 24 100 -10 14 -16 46 -30 72 -30 30 0 48 -12 48 -31 0 -18 10 -25 22 -18 12 8 29 4 37 -9 11 -17 29 -18 71 -2 49 19 53 18 31 -9 -16 -19 -18 -31 -5 -31 12 0 27 9 34 20 14 23 52 27 45 5 -3 -8 4 -15 15 -15 11 0 17 8 14 18 -3 9 11 13 31 8 25 -7 36 1 36 26 0 23 -7 30 -21 18 -40 -33 -133 3 -360 140 -317 191 -319 214 -40 384 11 7 21 -13 22 -45 5 -131 325 -489 384 -429 20 19 21 70 2 70 -10 0 -18 14 -18 30 0 17 -13 30 -30 30 -16 0 -30 10 -30 22 0 12 -13 17 -30 11 -16 -7 -30 -4 -30 5 0 10 19 22 43 28 30 9 39 22 30 48 -10 28 -5 27 24 -8 26 -30 52 -41 85 -33 38 8 42 6 18 -11 -26 -18 -25 -21 6 -22 53 0 67 -61 22 -95 -36 -27 -35 -28 12 -14 28 8 53 22 57 32 11 29 63 19 63 -14 0 -16 20 -38 45 -48 34 -14 37 -19 10 -20 -37 -1 -48 -51 -15 -71 11 -7 14 1 8 19 -7 17 -3 31 8 31 11 0 25 -11 31 -25 5 -14 11 -5 11 20 2 55 15 56 92 5 43 -28 50 -40 25 -40 -19 0 -35 -9 -35 -20 0 -11 31 -20 68 -20 38 0 72 -9 76 -21 3 -11 29 -22 56 -24 28 -2 65 -22 84 -44 35 -41 35 -41 37 -1 1 22 7 29 12 15 6 -14 23 -25 39 -25 15 0 28 -9 28 -20 0 -11 18 -20 40 -20 22 0 40 -10 40 -21 0 -12 9 -16 20 -9 10 6 40 1 65 -13 25 -14 54 -27 65 -29 150 -30 171 -96 25 -78 -58 7 -190 15 -295 16 -165 4 -199 10 -257 51 -55 40 -81 46 -156 36 -64 -9 -108 -3 -153 20 -75 39 -232 43 -254 7 -20 -32 -102 -32 -178 -1 -47 20 -75 18 -151 -7 -51 -18 -109 -32 -129 -32 -21 0 -48 -14 -62 -30 -32 -39 -223 -26 -291 19 -26 17 -64 31 -85 31 -21 0 -48 23 -60 50 -26 57 -122 70 -162 23 -12 -15 -72 -33 -132 -39 -61 -6 -124 -25 -141 -43 -18 -17 -64 -31 -104 -31 -40 0 -113 -19 -162 -43 -106 -52 -271 -55 -400 -9 -48 18 -94 28 -102 23 -8 -6 -50 8 -93 30 -61 32 -99 38 -173 28 -63 -8 -95 -5 -95 9 0 12 -32 22 -71 22 -79 0 -209 48 -209 77 0 40 -204 72 -230 36 -14 -18 -50 -33 -82 -34 -32 0 -93 -13 -136 -28 -72 -26 -82 -25 -137 15 -44 33 -51 46 -27 50 40 9 42 64 3 64 -29 0 -117 80 -104 94 4 4 30 -1 58 -12 35 -13 57 -12 74 4 18 19 22 17 17 -6 -3 -17 6 -28 21 -24 14 3 31 -13 37 -35 16 -61 28 -54 178 98 76 77 160 145 188 151 65 15 154 83 134 103 -9 8 -43 5 -77 -8 -44 -17 -74 -17 -101 -3 -42 22 -97 -12 -251 -153 -116 -107 -224 -117 -255 -24 -45 133 -46 161 -7 202 27 30 35 58 26 96 -13 60 90 108 181 85 54 -13 345 158 460 271 115 112 292 227 315 204 20 -20 -100 -263 -130 -263 -8 0 -15 -10 -15 -22 0 -12 -19 -48 -41 -80 -41 -57 -38 -98 7 -98 17 1 17 5 -2 17 -18 12 17 59 124 169 82 84 161 174 176 201 14 27 64 111 110 187 46 76 89 165 96 197 52 230 72 236 133 39z m-1503 -870 c21 -15 37 -121 17 -108 -9 6 -17 26 -18 44 -1 62 -52 113 -64 65 -7 -24 -2 -38 12 -35 13 2 20 -9 16 -26 -4 -16 -12 -66 -18 -109 -6 -44 -28 -97 -48 -119 -28 -30 -31 -45 -13 -66 17 -21 16 -34 -1 -51 -13 -13 -23 -44 -23 -69 0 -68 -22 -57 -109 53 -79 99 -141 136 -158 94 -6 -13 -11 -8 -11 11 -1 21 -17 32 -42 31 -52 -4 -51 -24 5 -80 47 -47 58 -96 25 -120 -12 -8 -8 -15 10 -15 27 -1 27 -3 0 -21 -22 -15 1 -19 83 -16 130 5 210 -33 178 -83 -17 -26 -29 -25 -94 10 -86 46 -187 54 -187 15 0 -21 9 -21 42 -4 38 20 40 18 27 -24 -13 -42 -11 -44 18 -19 41 33 43 5 4 -51 -16 -23 -26 -46 -21 -50 4 -5 -23 -9 -61 -10 -43 -2 -69 7 -69 23 0 16 -19 21 -52 15 -39 -8 -45 -15 -25 -29 18 -12 5 -15 -38 -9 -41 6 -65 1 -65 -14 -1 -14 -6 -16 -15 -3 -8 11 -28 20 -45 20 -16 0 -37 -9 -45 -20 -10 -13 -20 -13 -30 0 -40 55 -120 68 -141 23 -12 -23 -22 -32 -23 -18 0 14 -11 25 -22 25 -12 0 -16 -9 -9 -20 7 -11 3 -20 -9 -20 -11 0 -21 10 -21 22 0 12 -14 17 -31 10 -33 -12 -32 -9 3 108 8 28 16 68 17 90 1 42 50 55 77 21 9 -12 11 11 5 49 -10 67 -10 68 11 15 12 -30 30 -50 40 -44 10 7 13 20 7 30 -6 11 3 19 20 19 17 0 31 -13 31 -30 0 -16 9 -30 20 -30 11 0 20 14 20 30 0 17 18 30 40 30 22 0 40 10 40 21 0 12 -11 15 -25 6 -15 -9 -13 0 4 21 17 21 33 27 37 15 5 -15 15 -14 33 2 14 14 22 36 16 50 -5 14 5 25 23 25 19 0 38 -13 45 -30 6 -16 19 -25 29 -19 26 17 22 50 -6 44 -13 -3 -27 12 -32 32 -5 24 0 33 14 24 28 -17 28 20 1 70 -16 31 -14 39 10 39 18 0 32 19 33 45 1 30 5 35 13 15 6 -16 28 -42 48 -56 20 -15 37 -43 37 -65 0 -27 9 -34 33 -25 23 9 29 5 19 -11 -10 -16 15 -23 87 -23 130 0 127 18 -18 123 -149 109 -149 126 -3 129 89 2 116 -4 109 -23 -6 -14 11 -37 36 -50 26 -14 40 -17 32 -9 -8 9 6 33 30 54 34 30 38 42 17 55 -18 11 -20 20 -4 30 12 7 23 2 23 -13 1 -14 12 -5 24 20 21 43 24 44 42 10 11 -20 26 -40 33 -46z m12 -654 c-7 -7 13 -30 43 -52 30 -21 39 -33 20 -27 -19 7 -35 3 -35 -8 0 -31 -60 -22 -73 11 -6 17 -24 30 -40 30 -16 0 -24 -9 -17 -20 7 -11 1 -21 -14 -21 -14 -1 -8 -10 14 -19 48 -21 -3 -24 -54 -4 -39 17 -13 63 57 100 38 20 44 17 55 -26 7 -28 23 -50 35 -50 15 0 15 8 2 25 -40 50 -52 145 -14 106 19 -18 28 -39 21 -45z" class=""></path> <path d="M5560 10080 c-21 -14 -10 -16 38 -7 49 10 64 7 54 -10 -8 -13 -6 -23 5 -23 10 0 24 14 30 30 14 35 -77 42 -127 10z"></path> <path d="M6850 9459 c7 -11 -15 -30 -49 -42 -44 -15 -59 -31 -52 -54 5 -18 0 -46 -11 -63 -18 -25 -20 -24 -11 5 7 19 3 35 -8 35 -10 0 -19 -11 -19 -25 1 -38 33 -81 53 -69 25 15 93 -39 79 -63 -7 -11 -1 -27 13 -36 36 -23 77 -26 64 -5 -6 9 3 12 20 6 17 -7 27 -19 21 -27 -5 -9 18 -12 51 -9 37 5 56 0 49 -12 -7 -11 12 -20 43 -20 82 0 25 47 -164 137 -111 52 -166 169 -89 189 41 11 57 74 19 74 -12 0 -16 -9 -9 -21z"></path> <path d="M6279 9349 c-46 -49 -46 -49 -3 -49 32 0 40 -8 29 -35 -12 -33 -11 -33 23 0 19 20 31 47 25 60 -7 19 -10 19 -11 -1 -1 -15 -11 -21 -22 -14 -31 19 -24 46 15 54 22 4 27 12 13 21 -12 8 -43 -8 -69 -36z"></path> <path d="M5932 9190 c-22 -17 -32 -41 -25 -60 16 -41 53 -20 53 31 0 25 10 34 30 26 17 -6 30 -1 30 11 0 30 -42 27 -88 -8z"></path>  <path d="M2728 8533 c-6 -16 5 -55 25 -85 34 -51 37 -110 37 -677 l0 -621 -47 -63 c-70 -92 -48 -103 199 -102 239 2 266 14 211 98 -21 33 -32 116 -36 273 l-7 226 47 -12 c96 -24 142 -77 252 -289 153 -293 161 -299 388 -310 102 -5 198 -4 214 2 49 19 33 86 -26 112 -74 33 -118 91 -229 299 l-93 176 83 58 c333 229 296 704 -66 860 -157 68 -589 72 -677 7 -71 -52 -83 -55 -83 -17 0 62 -170 121 -192 65z m532 -163 c0 -17 -25 -41 -55 -54 -30 -13 -80 -46 -110 -74 l-55 -49 0 59 c0 97 52 143 165 146 37 1 55 -8 55 -28z m263 2 c69 -29 172 -124 153 -142 -5 -6 -32 6 -58 27 -58 45 -170 104 -238 124 -48 15 -47 16 13 17 34 1 92 -11 130 -26z m22 -170 c124 -111 82 -306 -79 -375 -79 -33 -309 -36 -341 -4 -22 22 -18 212 7 333 23 113 303 144 413 46z m244 -21 c22 -48 31 -98 23 -130 -20 -80 -45 -60 -58 44 -6 52 -17 111 -25 130 -27 71 26 32 60 -44z m-827 -623 c-24 -58 -30 443 -7 522 9 29 17 -59 21 -212 3 -144 -4 -283 -14 -310z m835 271 c-45 -77 -108 -116 -217 -136 l-70 -13 80 69 c44 38 94 70 112 70 17 1 48 19 68 41 58 64 72 46 27 -31z m-369 -255 c20 -24 45 -42 55 -39 9 3 16 -2 15 -10 -7 -45 5 -86 22 -75 11 7 15 -1 8 -17 -8 -22 -30 -9 -83 50 -40 44 -104 97 -144 119 l-71 40 80 -12 c46 -7 96 -30 118 -56z m223 -259 c18 -58 47 -126 63 -152 37 -60 18 -80 -33 -34 -21 20 -50 86 -62 148 -13 61 -29 125 -35 141 -6 17 -2 23 11 15 12 -7 37 -61 56 -118z m-661 -110 c12 -89 9 -105 -18 -105 -26 0 -32 24 -32 124 0 146 29 135 50 -19z"></path> <path d="M4667 8540 c-659 -139 -729 -1302 -93 -1540 544 -203 1017 321 887 983 -78 398 -418 637 -794 557z m242 -138 c6 -10 -36 -25 -93 -33 -165 -22 -396 -193 -471 -349 -24 -48 -36 -60 -41 -37 -19 99 193 352 338 403 98 34 250 44 267 16z m268 -132 c83 -107 123 -197 123 -277 0 -71 -58 5 -91 118 -17 58 -45 117 -61 131 -38 31 -95 138 -73 138 8 0 54 -50 102 -110z m-189 -60 c199 -184 176 -803 -34 -931 -295 -180 -549 197 -443 655 67 289 311 430 477 276z m-629 -427 c-12 -57 -31 -98 -41 -92 -26 16 -22 54 13 139 42 100 55 79 28 -47z m981 -87 c0 -64 -16 -136 -42 -191 -52 -106 -66 -100 -39 17 11 49 26 131 32 183 15 127 49 121 49 -9z m-958 -276 c83 -109 146 -219 132 -233 -16 -16 -186 218 -211 293 -26 76 -22 72 79 -60z m820 -135 c-24 -46 -120 -134 -176 -163 -67 -34 -101 -26 -45 12 27 18 89 68 137 110 98 85 112 92 84 41z m-413 -178 c38 -26 38 -27 -12 -27 -29 0 -74 18 -100 40 l-47 41 60 -14 c33 -7 78 -25 99 -40z"></path> <path d="M6150 8540 c-363 -94 -538 -368 -519 -812 27 -615 457 -935 939 -699 472 231 502 1188 45 1423 -172 88 -341 121 -465 88z m200 -160 c7 -12 -18 -20 -65 -20 -176 0 -289 -62 -356 -196 -34 -68 -77 -140 -96 -161 -19 -21 -33 -46 -31 -55 7 -42 -4 -69 -23 -57 -46 28 74 318 169 407 88 83 366 140 402 82z m220 -35 c172 -198 227 -315 179 -378 -26 -35 -28 -34 -28 11 -1 57 -116 269 -188 347 -36 38 -42 55 -22 55 16 0 43 -16 59 -35z m-159 -114 c238 -100 242 -833 5 -948 -271 -131 -442 52 -443 477 -1 405 166 585 438 471z m356 -606 c-6 -36 -20 -71 -30 -77 -11 -7 -13 11 -5 41 7 29 2 92 -12 141 -14 52 -18 112 -9 144 21 77 73 -153 56 -249z m-926 20 c0 -63 13 -149 28 -191 34 -94 0 -90 -52 7 -52 96 -48 299 5 299 10 0 18 -52 19 -115z m890 -260 c-21 -83 -104 -181 -191 -225 -120 -61 -116 -50 26 81 72 66 137 138 144 160 19 60 36 47 21 -16z m-636 -229 c62 -31 57 -60 -6 -35 -91 34 -128 59 -151 103 l-23 43 67 -44 c38 -25 88 -55 113 -67z" class=""></path> <path d="M6989 8532 c-26 -19 -33 -58 -34 -179 -1 -180 5 -190 91 -154 136 58 311 52 336 -12 38 -96 6 -1050 -37 -1125 -19 -33 -28 -66 -20 -74 11 -11 351 -18 460 -9 27 2 16 44 -29 107 -54 76 -69 1121 -16 1154 33 21 145 6 256 -33 127 -46 137 -35 134 146 l-3 157 -149 14 c-81 8 -240 6 -353 -3 -132 -11 -232 -10 -279 3 -41 11 -103 15 -140 9 -36 -6 -92 -3 -124 7 -40 11 -70 8 -93 -8z m323 -175 c20 -32 3 -33 -122 -8 -117 24 -119 25 -60 45 62 20 158 1 182 -37z m638 3 c37 -41 37 -41 -111 -28 -171 16 -183 20 -117 46 84 34 189 26 228 -18z m-373 -360 l0 -90 -28 60 c-30 66 -37 186 -15 243 18 47 44 -80 43 -213z m-29 -172 c21 -54 14 -568 -8 -568 -19 0 -23 63 -28 445 -2 149 10 190 36 123z m12 -733 c0 -21 -15 -35 -39 -35 -35 0 -37 6 -17 62 22 64 55 48 56 -27z"></path> <path d="M8499 8505 c-281 -142 -339 -502 -112 -696 45 -40 184 -120 307 -179 283 -136 338 -226 204 -338 -109 -92 -382 -23 -457 116 -18 31 -38 56 -46 55 -8 -2 -22 -3 -31 -3 -8 0 -30 -25 -48 -55 -19 -30 -61 -85 -95 -121 -73 -79 -74 -86 -16 -137 148 -133 400 -218 589 -200 587 55 715 679 188 918 -237 108 -362 206 -362 285 0 178 268 173 402 -9 62 -83 77 -78 169 49 101 139 99 162 -14 242 -197 139 -487 170 -678 73z m270 -107 c12 -11 12 -19 0 -20 -112 -9 -192 -39 -241 -92 -63 -68 -83 -46 -34 38 57 98 206 138 275 74z m284 -61 c26 -24 43 -48 38 -53 -11 -11 -184 89 -200 115 -22 35 115 -17 162 -62z m-594 -232 c37 -91 134 -248 163 -267 18 -11 19 -17 5 -18 -71 -1 -189 150 -216 275 -17 80 16 87 48 10z m283 -282 c27 -21 86 -57 132 -80 143 -73 226 -158 225 -230 -1 -43 -6 -52 -15 -30 -26 63 -123 156 -209 199 -106 53 -215 134 -215 159 0 29 30 23 82 -18z m410 -511 c-29 -156 -334 -284 -502 -212 -28 12 -3 18 86 19 214 2 319 78 367 266 30 117 72 53 49 -73z m-666 -139 c31 -23 46 -46 34 -50 -45 -15 -116 18 -149 69 -42 63 16 54 115 -19z"></path> <path d="M5110 6800 c-7 -11 -7 -28 -1 -39 13 -21 -133 -400 -191 -494 -25 -41 -32 -68 -19 -77 31 -19 203 11 189 33 -42 68 12 117 130 117 122 0 142 -14 142 -99 0 -26 21 -39 78 -48 78 -13 150 0 137 24 -28 52 -122 264 -185 418 l-75 185 -97 0 c-52 0 -101 -9 -108 -20z m148 -235 c14 -41 29 -86 35 -100 7 -18 -14 -25 -73 -25 -59 0 -80 7 -73 25 6 14 21 59 35 100 13 41 30 75 38 75 8 0 25 -34 38 -75z"></path> <path d="M5709 6799 c-7 -11 -2 -34 11 -49 17 -20 21 -78 12 -185 -6 -85 -14 -204 -17 -265 l-5 -110 79 0 79 0 -6 205 c-3 113 -2 205 3 205 4 0 69 -90 144 -200 l137 -200 92 0 92 0 -3 305 -4 305 -73 6 c-97 9 -145 -9 -113 -41 14 -14 23 -84 22 -174 -1 -125 -5 -144 -25 -114 -167 262 -236 333 -324 333 -48 0 -93 -9 -101 -21z"></path> <path d="M6494 6807 c-7 -7 -3 -29 8 -51 24 -44 16 -468 -10 -521 -26 -56 351 -51 443 5 205 125 203 439 -3 539 -83 40 -405 61 -438 28z m379 -158 c115 -116 26 -338 -130 -325 l-71 6 3 180 c1 99 3 182 4 185 7 31 152 -4 194 -46z"></path> <path d="M7572 6560 c-256 -10 -290 -21 -252 -80 40 -63 1976 -37 1955 27 -15 45 -1069 78 -1703 53z"></path> <path d="M2835 6545 c-97 -5 -135 -14 -135 -34 0 -47 128 -54 1048 -57 916 -3 954 0 925 75 -11 30 -1347 42 -1838 16z"></path> <path d="M8617 6061 c-296 -54 -456 -335 -339 -593 53 -117 201 -219 443 -308 150 -54 178 -78 198 -166 54 -237 -343 -226 -508 15 -24 35 -31 36 -62 10 -45 -37 -189 -232 -189 -255 0 -23 194 -153 288 -192 141 -59 2 -312 -170 -312 -233 1 -522 107 -618 227 -66 81 -64 92 23 122 474 163 571 1037 146 1316 -156 102 -208 113 -595 121 -356 7 -401 -3 -344 -78 47 -63 43 -1241 -5 -1327 -49 -86 -21 -98 205 -86 l186 9 108 -112 c123 -128 190 -302 217 -572 8 -82 24 -208 36 -280 20 -122 15 -197 -29 -415 -16 -84 5 -165 44 -165 21 0 27 12 18 39 -14 46 8 181 30 181 8 0 30 -40 49 -90 33 -88 71 -120 71 -60 0 16 -23 90 -51 165 -107 282 -23 341 109 77 93 -186 95 -205 49 -335 -40 -112 6 -421 47 -318 12 30 13 79 3 126 -13 57 -10 94 13 142 17 36 37 104 46 152 l14 87 58 -49 c45 -39 61 -74 73 -162 9 -67 36 -142 67 -188 51 -75 63 -134 40 -195 -11 -28 -89 -32 -672 -32 -600 0 -656 3 -627 32 17 17 41 48 52 70 18 33 36 37 132 27 161 -15 164 -10 157 277 -10 436 -35 518 -169 554 -114 31 -1618 28 -1722 -3 -141 -42 -231 -249 -250 -577 -3 -49 -12 -105 -19 -124 -30 -76 -4 -106 100 -113 89 -5 105 -14 144 -75 l44 -68 -367 0 -368 0 -47 59 c-25 32 -84 86 -130 120 -98 70 -206 244 -206 331 1 91 21 150 54 150 15 0 22 10 15 21 -29 47 -49 429 -26 498 l23 69 47 -59 c192 -236 209 -292 137 -439 -57 -116 -64 -238 -19 -345 40 -97 70 -54 45 65 -14 66 -11 103 14 163 l33 77 27 -63 c68 -162 230 -357 230 -279 0 15 -164 321 -182 341 -22 23 -23 132 -2 166 18 27 91 -41 193 -179 52 -71 121 -113 145 -88 6 6 -16 42 -50 80 -33 38 -67 90 -74 116 -8 25 -37 70 -65 100 l-50 53 62 108 c58 101 136 192 149 173 3 -4 22 -33 41 -63 18 -30 46 -55 60 -55 14 0 47 -22 73 -50 28 -30 69 -50 103 -50 l56 0 -88 88 c-48 48 -102 115 -120 149 l-32 62 84 61 c107 77 135 76 204 -11 48 -61 53 -79 37 -127 -30 -87 5 -126 56 -62 l40 50 59 -70 c44 -52 64 -64 81 -47 27 26 -13 120 -70 167 -30 25 -26 31 33 63 95 50 107 47 168 -48 55 -85 138 -164 197 -187 47 -18 41 46 -7 72 -56 30 -166 196 -149 225 91 161 246 103 345 -129 27 -61 62 -105 101 -125 94 -49 111 -37 54 38 -28 37 -52 74 -52 80 0 15 151 -61 223 -112 29 -20 68 -37 87 -37 53 0 -42 107 -150 168 -262 148 -349 316 -211 409 101 69 167 140 176 190 13 70 75 -88 75 -191 0 -56 17 -114 49 -166 31 -49 50 -111 50 -160 1 -81 63 -210 101 -210 12 0 8 30 -10 74 -77 184 44 227 155 56 37 -57 95 -95 95 -62 0 54 -82 167 -175 242 -116 95 -162 163 -164 245 -1 60 11 57 102 -25 42 -38 90 -70 106 -70 72 0 220 -252 241 -410 23 -176 69 -199 70 -35 l0 65 125 -68 c96 -53 134 -87 166 -150 64 -128 117 -173 99 -82 -34 162 -66 207 -219 306 -137 87 -321 310 -287 345 14 13 213 -49 226 -71 6 -10 54 -39 106 -63 52 -25 101 -48 109 -53 35 -17 11 52 -30 90 -129 117 -260 186 -352 186 -141 0 -403 144 -403 221 0 9 -5 29 -11 46 -8 18 3 34 30 43 51 16 52 40 2 104 -22 27 -67 137 -100 244 -34 107 -119 370 -189 583 -71 214 -138 426 -150 471 l-22 82 -195 12 c-211 12 -255 -2 -236 -77 20 -82 -277 -1056 -389 -1276 -65 -129 -63 -153 13 -153 39 0 48 -8 39 -32 -7 -17 -18 -56 -25 -85 -54 -221 -241 -222 -363 -1 l-66 119 131 142 c391 423 259 1209 -228 1350 -643 188 -1077 -576 -710 -1249 100 -183 96 -265 -23 -417 -50 -64 -103 -146 -119 -182 -34 -82 -54 -82 -120 4 -120 158 -141 351 -38 351 109 0 107 45 -7 154 -142 136 -291 422 -236 454 402 236 336 782 -108 883 -97 23 -825 12 -849 -12 -13 -13 -6 -42 20 -84 64 -106 72 -1167 9 -1255 -65 -91 -47 -131 54 -125 208 13 63 -269 -252 -494 -50 -35 -97 -121 -67 -121 6 0 41 23 77 50 80 61 91 62 79 5 -55 -268 -9 -287 69 -28 35 115 59 158 127 218 101 91 91 91 159 -7 l55 -80 -55 -56 c-31 -31 -87 -118 -125 -194 -39 -76 -95 -173 -125 -216 -31 -43 -56 -89 -56 -101 0 -13 -32 -61 -72 -107 -45 -54 -61 -84 -42 -84 33 0 154 132 243 263 l59 87 16 -80 c18 -84 54 -140 58 -89 2 16 1 83 0 149 -4 130 81 319 154 344 19 6 87 32 151 57 l118 46 -10 -83 c-12 -105 -274 -515 -408 -639 -95 -87 -207 -282 -207 -358 0 -59 32 -28 89 84 51 103 79 103 87 -1 10 -126 44 -94 44 42 0 119 169 379 225 345 32 -20 14 -223 -28 -318 -23 -53 -47 -156 -52 -228 -6 -72 -23 -156 -38 -186 -24 -47 -24 -55 0 -55 48 0 72 49 104 212 49 253 53 268 73 280 10 7 34 -2 54 -20 58 -52 65 -37 22 47 -73 143 -57 406 31 526 89 122 102 120 116 -20 11 -114 26 -211 45 -302 22 -108 74 -5 58 116 -8 61 -18 156 -21 211 -4 55 -12 144 -19 198 -19 152 181 416 224 297 7 -19 49 -75 93 -123 l80 -89 -45 -31 c-115 -80 -218 -188 -228 -237 -16 -82 -1 -80 74 8 66 76 220 166 244 142 21 -21 -64 -184 -145 -277 -44 -51 -92 -123 -107 -160 -14 -37 -46 -95 -69 -128 -24 -33 -69 -114 -101 -179 -31 -66 -90 -156 -130 -200 -92 -102 -169 -229 -150 -247 8 -8 34 12 57 45 24 32 67 85 96 119 l52 60 15 -67 c10 -48 1 -105 -32 -204 l-47 -137 -108 0 c-90 0 -105 -5 -95 -32 7 -17 12 -44 12 -59 0 -97 267 -289 460 -331 243 -52 4528 -35 4710 19 211 63 500 348 410 403 -19 12 -18 17 2 24 18 6 26 51 26 152 0 184 35 175 205 -49 62 -82 73 -51 20 58 -26 55 -79 118 -127 153 -45 33 -99 84 -119 113 -20 29 -71 92 -112 138 -41 47 -75 98 -75 113 -1 56 -82 204 -158 291 -74 83 -143 272 -112 303 17 18 130 -99 183 -190 54 -92 173 -206 214 -206 48 0 110 -78 152 -194 60 -164 81 -201 136 -237 68 -45 77 -23 22 55 -26 36 -62 114 -80 173 l-34 107 54 -13 c29 -6 85 -46 123 -88 74 -81 156 -134 175 -114 7 6 -11 36 -38 66 -28 30 -71 84 -95 120 -25 36 -53 65 -63 65 -17 0 -261 107 -379 166 -28 14 -76 75 -109 140 -66 131 -143 204 -330 313 -165 97 -173 119 -37 118 257 -3 493 -157 616 -403 35 -72 74 -116 124 -144 96 -51 123 -22 43 47 -150 127 -121 181 50 95 94 -48 112 -72 190 -257 53 -124 89 -106 44 22 -34 97 -26 100 74 32 70 -47 75 -48 75 -12 0 24 -29 56 -75 83 -41 24 -101 75 -132 113 -37 45 -124 101 -244 158 -148 70 -205 110 -273 191 -47 56 -119 117 -159 136 l-72 34 68 74 c83 91 63 99 178 -69 96 -141 225 -257 286 -257 20 0 -3 35 -61 95 -104 107 -243 345 -232 399 15 80 122 65 166 -23 22 -45 74 -103 115 -129 41 -27 75 -63 76 -80 2 -80 236 -352 271 -316 19 18 -29 89 -90 132 -74 53 -99 130 -35 110 92 -28 130 -46 142 -67 7 -11 27 -21 43 -21 52 0 -32 102 -111 135 -252 105 -372 318 -229 406 107 66 188 205 188 320 0 247 -74 340 -389 488 -255 120 -291 149 -291 240 0 173 252 163 401 -14 62 -74 68 -71 177 84 l84 121 -54 50 c-137 127 -379 189 -591 151z m-2557 -159 c0 -20 -13 -48 -30 -62 -32 -27 -36 -15 -17 55 14 55 47 60 47 7z m1020 -51 c0 -49 -9 -94 -20 -101 -12 -8 -20 26 -20 89 0 55 9 101 20 101 11 0 20 -40 20 -89z m342 69 c21 0 38 -8 38 -18 0 -10 -31 -18 -68 -18 -38 0 -98 -7 -135 -15 -59 -13 -63 -11 -40 17 27 33 95 53 140 41 14 -4 44 -7 65 -7z m1495 -9 c59 -30 120 -92 90 -90 -48 3 -234 117 -191 118 25 1 71 -12 101 -28z m-5617 -10 c48 -14 47 -16 -20 -26 -83 -13 -180 -10 -180 7 0 39 100 49 200 19z m1490 -1 c29 -12 9 -17 -70 -17 -79 0 -99 5 -70 17 22 9 54 17 70 17 17 0 48 -8 70 -17z m-1118 -68 c64 -64 104 -217 48 -182 -11 7 -20 26 -20 42 0 16 -37 69 -83 118 -100 110 -52 129 55 22z m4125 -52 c18 -27 46 -61 63 -74 22 -18 23 -25 4 -25 -30 -1 -224 175 -224 203 0 30 122 -50 157 -104z m-2714 16 c77 -83 137 -231 137 -335 -1 -68 -28 -27 -72 109 -18 55 -68 147 -111 205 -93 125 -63 139 46 21z m-649 -34 c-39 -44 -86 -108 -104 -143 -42 -81 -61 -63 -31 29 21 64 178 222 198 201 5 -4 -24 -44 -63 -87z m1799 -169 c76 -225 73 -213 48 -213 -31 0 -56 60 -110 265 -82 307 -49 280 62 -52z m2192 138 c-5 -48 0 -116 12 -150 21 -62 5 -81 -33 -36 -41 49 -47 129 -16 202 40 96 49 92 37 -16z m-5467 -46 l-1 -115 -30 68 c-30 69 -22 162 13 162 11 0 19 -52 18 -115z m510 62 c129 -62 144 -243 28 -350 -52 -50 -333 -94 -368 -59 -22 23 -6 419 17 429 59 23 258 11 323 -20z m1412 -7 c201 -143 208 -674 12 -858 -242 -227 -511 66 -453 492 46 332 250 502 441 366z m2644 17 c165 -50 247 -207 244 -467 -4 -296 -142 -454 -398 -458 l-120 -2 -5 456 -6 455 46 18 c63 26 147 25 239 -2z m-1608 -152 c-28 -101 -92 -225 -117 -225 -11 0 -5 34 14 75 18 41 46 113 62 160 36 103 70 95 41 -10z m154 -27 c8 -45 40 -155 72 -245 80 -227 86 -216 -107 -209 -135 5 -164 11 -157 36 47 176 154 500 165 500 7 0 20 -37 27 -82z m1038 -178 l-15 -110 -18 92 c-13 65 -11 118 8 180 l26 88 7 -70 c4 -38 1 -119 -8 -180z m821 53 c38 -152 32 -271 -15 -309 -18 -16 -24 18 -25 153 0 95 -8 202 -17 238 -10 39 -9 65 1 65 11 0 36 -66 56 -147z m-4149 65 c0 -84 -130 -243 -220 -267 -42 -12 -37 -3 31 56 45 39 98 107 118 152 35 77 71 107 71 59z m-812 -203 c14 -154 -1 -282 -30 -263 -23 14 -23 408 -1 408 10 0 23 -65 31 -145z m1328 -75 c-2 -208 -2 -209 -47 -90 -30 77 -31 102 -9 180 39 139 58 108 56 -90z m4452 89 c177 -88 192 -97 192 -114 0 -25 -250 75 -308 123 -32 27 -45 72 -17 58 8 -5 68 -35 133 -67z m-3548 -175 c0 -69 -14 -126 -40 -169 -22 -36 -41 -81 -42 -100 0 -19 -5 -25 -11 -12 -5 13 5 77 22 143 17 66 31 153 31 193 0 44 8 68 20 61 11 -7 20 -59 20 -116z m1213 -45 c26 -87 44 -172 41 -189 -7 -37 -85 131 -103 223 -8 37 -19 84 -25 104 -7 25 -1 35 15 29 14 -4 46 -80 72 -167z m-3124 49 c22 -21 -17 -23 -84 -5 -24 6 -39 20 -33 30 12 20 86 4 117 -25z m2472 -53 c-14 -76 -60 -165 -84 -165 -8 0 -6 29 4 65 48 169 106 242 80 100z m3352 -50 c40 -78 18 -206 -47 -270 -65 -66 -81 -43 -28 41 48 79 53 182 12 254 -16 28 -29 58 -29 67 -2 31 60 -32 92 -92z m-5593 -20 c26 -58 51 -112 55 -120 5 -8 -6 -9 -24 -3 -27 11 -131 183 -131 217 0 49 61 -9 100 -94z m3568 -235 l-14 -70 -19 76 c-11 44 -13 132 -4 210 l16 134 17 -140 c10 -77 11 -171 4 -210z m-3808 240 c82 -82 243 -444 233 -524 -17 -140 -163 -296 -340 -362 -82 -31 -176 107 -169 250 l6 125 75 13 c97 15 105 25 68 81 -27 41 -42 230 -34 422 2 50 110 46 161 -5z m2780 -38 c0 -27 -51 -41 -102 -27 -43 11 -44 13 -7 27 55 21 109 21 109 0z m1798 -87 c-23 -48 -188 -195 -219 -195 -9 0 36 54 101 120 128 130 151 144 118 75z m-4897 -162 c-25 -25 -30 82 -6 140 11 27 17 17 21 -41 4 -42 -3 -87 -15 -99z m1473 59 c31 -38 90 -84 131 -104 90 -42 99 -72 15 -48 -84 24 -164 85 -206 158 -48 83 -11 79 60 -6z m1867 15 c59 -155 4 -394 -108 -470 -35 -24 -87 -70 -115 -103 l-53 -61 -25 48 c-14 27 -60 86 -102 132 -111 123 -166 331 -118 456 30 79 491 78 521 -2z m-2631 -46 c19 -44 43 -75 53 -69 9 5 11 -4 5 -21 -12 -30 -52 -45 -44 -16 9 32 -53 101 -83 91 -23 -7 -25 -5 -5 9 14 10 20 33 13 52 -27 70 27 29 61 -46z m1358 -3 c-59 -66 -208 -122 -208 -78 0 11 17 20 37 20 20 0 72 26 115 57 87 64 114 65 56 1z m3464 -37 c37 -33 58 -65 47 -71 -20 -13 -114 46 -158 99 -48 58 38 36 111 -28z m-1977 -128 c-6 -31 -11 -35 -18 -13 -41 116 -51 159 -40 170 19 20 66 -109 58 -157z m2365 77 c-29 -34 -230 -43 -250 -10 -8 12 28 20 94 20 58 0 119 9 135 19 40 25 52 9 21 -29z m-1430 -10 c8 -13 -34 -20 -110 -20 -76 0 -118 7 -110 20 7 11 56 20 110 20 54 0 103 -9 110 -20z m-3760 -258 c-32 -30 -33 -27 -20 38 21 99 39 120 47 52 4 -35 -7 -70 -27 -90z m2023 43 c20 -52 66 -128 103 -169 100 -111 33 -221 -177 -293 l-107 -36 -46 54 c-61 73 -58 102 22 214 37 52 74 127 82 165 40 186 71 202 123 65z m-847 48 c6 -15 -7 -65 -28 -112 -21 -47 -38 -102 -38 -122 0 -21 -26 -67 -57 -103 -88 -101 -104 -146 -98 -265 6 -136 41 -135 55 2 22 212 109 257 226 117 l75 -89 -90 -110 c-49 -61 -99 -128 -111 -150 -50 -94 -90 -87 -178 31 -182 243 -215 368 -142 538 22 51 40 114 40 140 0 128 27 150 187 150 106 0 152 -8 159 -27z m-446 -107 c-29 -89 -60 -130 -60 -79 0 47 58 182 72 167 7 -6 1 -46 -12 -88z m621 -78 c24 -73 117 -148 184 -148 69 0 14 -93 -93 -156 l-69 -41 -47 63 c-123 166 -136 208 -93 303 34 75 89 65 118 -21z m-730 -113 c-7 -47 -16 -159 -19 -250 -4 -161 -7 -168 -78 -241 -40 -41 -95 -129 -121 -195 -26 -65 -71 -154 -100 -197 -53 -78 -62 -125 -40 -207 17 -64 47 -35 47 46 0 50 18 89 67 144 38 41 75 107 83 145 49 230 113 217 125 -25 10 -206 -13 -264 -171 -428 -95 -98 -132 -156 -179 -280 l-60 -157 -193 -6 -193 -5 34 75 c18 42 40 148 48 236 18 195 129 487 170 446 40 -40 61 -234 38 -347 -28 -137 -21 -158 31 -89 67 89 77 231 30 414 -31 115 -30 117 25 224 66 131 100 149 110 58 l7 -66 24 56 c13 31 24 86 24 123 0 37 13 92 30 124 16 31 30 81 30 111 0 29 8 59 17 64 10 6 41 59 68 117 47 98 121 195 148 195 7 0 6 -38 -2 -85z m3509 5 c88 -44 160 -89 160 -100 0 -11 53 -61 117 -111 125 -97 163 -155 163 -251 0 -87 44 -175 149 -297 l94 -108 -12 -122 c-6 -66 -13 -148 -14 -181 -4 -71 46 -270 67 -270 28 0 38 91 17 147 -12 31 -21 81 -21 113 0 163 157 28 203 -175 28 -118 31 -169 20 -280 -2 -18 -58 -25 -203 -25 l-200 0 0 95 c0 70 -14 116 -52 172 -35 51 -54 108 -56 170 -6 116 -36 165 -146 234 -59 38 -107 93 -155 179 -38 68 -85 137 -104 152 -101 83 -147 181 -147 314 l0 130 45 -48 c25 -27 77 -69 116 -93 47 -29 87 -78 117 -145 28 -61 82 -132 141 -181 53 -44 116 -121 141 -170 46 -89 80 -115 80 -60 0 60 -45 144 -120 221 -42 44 -112 141 -154 217 -55 96 -115 166 -205 240 -142 115 -193 177 -212 258 -17 70 -18 70 171 -25z m-1885 -809 c15 -14 -112 -14 -169 1 -25 7 -39 23 -33 39 10 25 168 -5 202 -40z m1157 37 c-6 -15 7 -20 34 -14 36 8 38 5 14 -12 -33 -24 -186 -30 -207 -8 -17 16 77 57 131 57 20 0 33 -10 28 -23z m-1545 -13 c7 -18 15 -19 26 -3 10 13 34 16 56 9 32 -12 28 -17 -28 -28 -37 -7 -78 -4 -91 7 -13 11 -30 14 -37 6 -7 -7 -13 -2 -13 11 0 31 74 30 87 -2z m953 2 c0 -11 11 -13 25 -4 38 23 92 23 83 -1 -10 -27 -167 -29 -206 -4 -19 13 -24 11 -14 -5 8 -13 5 -23 -7 -23 -11 0 -21 13 -21 28 0 19 23 28 70 28 39 0 70 -9 70 -19z m-980 -102 c-2 -146 -22 -175 -123 -175 -106 0 -109 5 -76 125 22 77 199 122 199 50z m270 -25 c-34 -163 -21 -150 -143 -150 -106 0 -111 2 -100 45 7 25 13 70 13 100 0 54 2 55 120 55 118 0 121 -1 110 -50z m323 -12 c-7 -35 -13 -80 -13 -100 0 -33 -16 -38 -130 -38 l-130 0 0 100 0 100 143 0 142 0 -12 -62z m307 37 c0 -14 -6 -59 -13 -100 l-12 -75 -118 0 -117 0 0 100 0 100 130 0 c91 0 130 -8 130 -25z m280 0 c0 -14 -6 -59 -13 -100 l-12 -75 -110 0 -110 0 12 75 c7 41 13 86 13 100 0 17 35 25 110 25 75 0 110 -8 110 -25z m276 -70 l-6 -95 -115 -6 -115 -6 0 101 0 101 121 0 121 0 -6 -95z m272 63 c42 -110 16 -168 -78 -168 l-90 0 0 100 0 100 78 0 c52 0 82 -10 90 -32z m11 -246 c18 -30 -23 -309 -48 -327 -50 -34 -121 -15 -146 40 -80 178 -331 183 -404 8 l-26 -62 -412 9 -413 10 -27 51 c-86 165 -341 161 -405 -6 -21 -56 -109 -62 -123 -10 -10 40 0 281 13 302 14 22 1977 8 1991 -15z m-2988 -150 c7 -51 4 -104 -9 -128 -28 -52 -28 -155 -1 -205 19 -37 12 -39 -140 -39 -89 0 -161 6 -161 13 0 68 101 266 178 347 113 121 116 121 133 12z m1429 -106 c69 -88 -9 -246 -123 -246 -72 0 -164 112 -149 184 25 125 192 163 272 62z m1256 23 c33 -23 43 -50 42 -105 l-2 -74 -16 68 c-18 76 -48 101 -118 102 -100 0 -161 -128 -97 -200 21 -24 20 -24 -10 -2 -133 101 63 307 201 211z m-2414 -210 l108 -69 -138 -6 c-180 -8 -192 -2 -192 94 0 130 17 155 70 98 24 -27 93 -79 152 -117z m2368 83 c0 -15 -16 -37 -34 -49 -44 -28 -87 9 -69 57 15 40 103 33 103 -8z m-232 -68 c4 -13 21 -40 38 -59 29 -33 4 -35 -493 -35 l-523 0 44 68 44 67 441 -9 c317 -6 443 -15 449 -32z m274 -32 c-40 -44 -152 -67 -152 -32 0 14 22 20 56 15 35 -5 66 3 83 23 14 18 31 32 37 32 5 0 -5 -17 -24 -38z m-3192 -293 c0 -25 -22 -30 -113 -25 -163 9 -170 56 -9 56 97 0 122 -6 122 -31z m490 1 c0 -22 -198 -39 -244 -21 -16 6 -23 20 -16 32 17 26 260 16 260 -11z m490 0 c0 -24 -28 -30 -130 -30 -102 0 -130 6 -130 30 0 24 28 30 130 30 102 0 130 -6 130 -30z m475 5 c-5 -16 -49 -25 -125 -25 -76 0 -120 9 -125 25 -6 18 27 25 125 25 98 0 131 -7 125 -25z m480 0 c-5 -16 -49 -25 -125 -25 -76 0 -120 9 -125 25 -6 18 27 25 125 25 98 0 131 -7 125 -25z m485 -5 c0 -24 -28 -30 -130 -30 -102 0 -130 6 -130 30 0 24 28 30 130 30 102 0 130 -6 130 -30z m475 5 c-13 -40 -255 -46 -255 -6 0 25 26 31 132 31 96 0 129 -7 123 -25z m485 -6 c0 -25 -23 -30 -123 -25 -178 9 -185 56 -9 56 106 0 132 -6 132 -31z m470 1 c0 -11 -56 -23 -125 -26 -104 -5 -125 0 -125 26 0 26 21 31 125 26 69 -3 125 -15 125 -26z m480 0 c0 -11 -56 -23 -125 -26 -104 -5 -125 0 -125 26 0 26 21 31 125 26 69 -3 125 -15 125 -26z m465 5 c-13 -40 -235 -46 -235 -6 0 25 25 31 122 31 88 0 119 -7 113 -25z"></path> <path d="M5525 2846 c-45 -17 -82 -112 -63 -161 48 -127 230 -93 226 42 -3 97 -78 152 -163 119z m95 -127 c0 -45 -26 -63 -68 -47 -37 14 -41 51 -10 82 31 31 78 10 78 -35z"></path>     <path d="M5866 1462 c-132 -82 -135 -325 -6 -392 139 -72 324 2 252 101 -27 37 -30 37 -67 4 -89 -81 -202 1 -175 125 19 87 90 118 161 71 49 -32 56 -32 86 -3 83 83 -137 165 -251 94z"></path> <path d="M6326 1461 c-83 -51 -119 -160 -88 -272 38 -144 204 -195 320 -98 201 170 -9 506 -232 370z m163 -92 c84 -85 40 -237 -65 -225 -98 11 -129 148 -51 226 38 39 76 38 116 -1z"></path> <path d="M2960 1430 c0 -42 9 -50 60 -50 l60 0 0 -170 c0 -168 1 -170 50 -170 49 0 50 2 50 170 l0 170 60 0 c51 0 60 8 60 50 0 49 -2 50 -170 50 -168 0 -170 -1 -170 -50z"></path> <path d="M3389 1260 l-2 -220 57 0 c51 0 56 7 56 70 0 43 10 70 25 70 14 0 43 -31 64 -70 26 -49 51 -70 84 -70 57 0 60 38 9 103 -37 47 -37 49 0 95 100 123 18 242 -168 242 l-124 0 -1 -220z m228 72 c8 -41 -27 -71 -82 -72 -26 0 -35 16 -35 61 0 73 103 83 117 11z"></path> <path d="M3893 1283 c-40 -108 -73 -207 -73 -220 0 -41 96 -26 110 17 10 31 30 40 90 40 60 0 80 -9 90 -40 8 -26 30 -40 61 -40 61 0 63 -11 -24 234 -103 292 -148 294 -254 9z m154 12 c19 -68 16 -75 -27 -75 -22 0 -40 7 -40 15 1 38 26 105 40 105 8 0 21 -20 27 -45z"></path> <path d="M4246 1435 c6 -25 41 -124 77 -221 95 -249 132 -242 239 44 93 247 90 222 21 222 -52 0 -59 -10 -93 -125 -51 -173 -56 -174 -107 -15 -41 125 -51 140 -96 140 -43 0 -50 -7 -41 -45z"></path> <path d="M4740 1260 l0 -220 150 0 c147 0 150 1 150 50 0 47 -7 50 -100 50 -91 0 -100 4 -100 46 0 41 8 45 70 38 64 -8 70 -4 70 44 0 46 -8 52 -70 52 -49 0 -70 9 -70 30 0 23 24 30 100 30 93 0 100 3 100 50 0 49 -3 50 -150 50 l-150 0 0 -220z"></path> <path d="M5160 1260 l0 -220 140 0 c136 0 140 1 140 50 0 46 -7 50 -90 50 l-90 0 0 170 c0 168 -1 170 -50 170 l-50 0 0 -220z"></path> <path d="M6743 1260 l0 -220 61 0 62 0 -14 133 c-15 144 15 156 68 26 32 -77 47 -75 103 16 l47 75 6 -125 c6 -118 9 -125 55 -125 l49 0 0 220 0 220 -56 0 c-47 0 -63 -15 -100 -91 -50 -102 -63 -101 -127 12 -35 62 -56 79 -99 79 l-54 0 -1 -220z"></path> <path d="M7310 1260 l0 -220 55 0 c50 0 55 7 55 70 0 66 4 70 66 70 135 0 199 137 114 245 -38 49 -55 55 -166 55 l-124 0 0 -220z m201 111 c31 -23 35 -36 17 -65 -23 -37 -107 -62 -110 -32 0 9 -4 33 -8 55 -14 74 32 93 101 42z"></path> <path d="M7787 1425 c-7 -30 -39 -117 -70 -193 -31 -76 -57 -150 -57 -165 0 -44 95 -33 110 13 10 31 30 40 89 40 60 0 79 -9 87 -40 10 -38 114 -61 114 -25 1 100 -156 425 -205 425 -43 0 -57 -12 -68 -55z m93 -123 c0 -10 5 -33 12 -50 9 -23 0 -32 -30 -32 -44 0 -50 15 -30 68 13 34 48 44 48 14z"></path> <path d="M8160 1260 l0 -220 49 0 c46 0 49 7 55 125 l6 125 76 -125 c130 -211 174 -187 174 95 l0 220 -55 0 c-55 0 -55 -1 -49 -125 6 -139 1 -138 -101 33 -41 71 -66 92 -105 92 l-50 0 0 -220z"></path> <path d="M8620 1461 c0 -10 28 -64 63 -120 52 -83 63 -120 60 -203 -4 -99 -3 -101 52 -94 51 6 55 13 58 98 2 59 20 120 52 170 103 164 104 168 35 168 -50 0 -67 -13 -94 -70 -18 -38 -40 -70 -48 -70 -9 0 -27 32 -41 70 -24 67 -137 109 -137 51z"></path>      </g> </svg>